<svg width="400" height="200" viewBox="0 0 400 200" fill="none" xmlns="http://www.w3.org/2000/svg">
<rect width="400" height="200" fill="black"/>
<path d="M102.553 111.452C100.338 111.452 98.4136 110.978 96.7792 110.032C95.1448 109.065 93.876 107.71 92.9728 105.968C92.0911 104.226 91.6502 102.172 91.6502 99.8065C91.6502 97.3978 92.1126 95.2903 93.0373 93.4839C93.962 91.6559 95.2416 90.2366 96.876 89.2258C98.5319 88.2151 100.446 87.7097 102.618 87.7097C103.693 87.7097 104.607 87.8172 105.36 88.0323C106.134 88.2258 106.79 88.4731 107.328 88.7742C107.865 89.0538 108.328 89.3011 108.715 89.5161C109.123 89.7097 109.489 89.8065 109.811 89.8065C110.134 89.8065 110.381 89.6559 110.553 89.3548C110.747 89.0538 110.887 88.5591 110.973 87.871H112.263C112.242 88.5806 112.22 89.3226 112.199 90.0968C112.177 90.8495 112.156 91.7419 112.134 92.7742C112.134 93.7849 112.134 95.0645 112.134 96.6129H110.844C110.607 95.043 110.166 93.7097 109.521 92.6129C108.898 91.5161 108.102 90.6774 107.134 90.0968C106.166 89.5161 105.059 89.2258 103.811 89.2258C101.596 89.2258 99.8653 90.129 98.6179 91.9355C97.3921 93.7419 96.7792 96.2796 96.7792 99.5484C96.7792 102.839 97.4029 105.409 98.6502 107.258C99.8975 109.086 101.629 110 103.844 110C105.091 110 106.199 109.71 107.166 109.129C108.156 108.527 108.962 107.667 109.586 106.548C110.209 105.43 110.629 104.097 110.844 102.548H112.134C112.134 104.032 112.134 105.29 112.134 106.323C112.156 107.355 112.177 108.258 112.199 109.032C112.22 109.806 112.242 110.559 112.263 111.29H110.973C110.887 110.581 110.758 110.086 110.586 109.806C110.414 109.527 110.156 109.387 109.811 109.387C109.467 109.387 109.102 109.495 108.715 109.71C108.328 109.903 107.865 110.14 107.328 110.419C106.79 110.699 106.134 110.935 105.36 111.129C104.586 111.344 103.65 111.452 102.553 111.452ZM124.472 111.452C122.859 111.452 121.429 111.14 120.181 110.516C118.934 109.871 117.956 108.903 117.246 107.613C116.536 106.301 116.181 104.656 116.181 102.677C116.181 100.699 116.536 99.0538 117.246 97.7419C117.956 96.4301 118.934 95.4624 120.181 94.8387C121.429 94.1935 122.859 93.871 124.472 93.871C126.106 93.871 127.536 94.1935 128.762 94.8387C129.988 95.4624 130.956 96.4301 131.665 97.7419C132.375 99.0538 132.73 100.699 132.73 102.677C132.73 104.656 132.375 106.301 131.665 107.613C130.956 108.903 129.988 109.871 128.762 110.516C127.536 111.14 126.106 111.452 124.472 111.452ZM124.472 110.194C125.504 110.194 126.353 109.602 127.02 108.419C127.708 107.215 128.052 105.301 128.052 102.677C128.052 100.011 127.708 98.086 127.02 96.9032C126.353 95.6989 125.504 95.0968 124.472 95.0968C123.418 95.0968 122.558 95.6989 121.891 96.9032C121.224 98.086 120.891 100.011 120.891 102.677C120.891 105.301 121.224 107.215 121.891 108.419C122.558 109.602 123.418 110.194 124.472 110.194ZM146.969 111V109.742C147.765 109.72 148.303 109.548 148.582 109.226C148.883 108.882 149.034 108.28 149.034 107.419V99.4194C149.034 98.2581 148.797 97.3871 148.324 96.8065C147.872 96.2258 147.195 95.9355 146.292 95.9355C145.582 95.9355 144.926 96.1398 144.324 96.5484C143.722 96.957 143.206 97.5484 142.776 98.3226V96.9032C143.313 95.9355 144.045 95.1935 144.969 94.6774C145.915 94.1398 146.991 93.871 148.195 93.871C149.915 93.871 151.227 94.3871 152.131 95.4194C153.034 96.4301 153.485 97.8925 153.485 99.8065V107.419C153.485 108.28 153.711 108.882 154.163 109.226C154.614 109.548 155.41 109.72 156.55 109.742V111C156.227 110.978 155.776 110.968 155.195 110.968C154.636 110.946 154.012 110.925 153.324 110.903C152.657 110.882 152.002 110.871 151.356 110.871C150.518 110.871 149.679 110.892 148.84 110.935C148.002 110.957 147.378 110.978 146.969 111ZM135.421 111V109.742C136.582 109.72 137.378 109.548 137.808 109.226C138.26 108.882 138.485 108.28 138.485 107.419V98.4194C138.485 97.4086 138.249 96.6989 137.776 96.2903C137.324 95.8602 136.539 95.6237 135.421 95.5806V94.3226C135.872 94.3441 136.324 94.3656 136.776 94.3871C137.227 94.4086 137.69 94.4194 138.163 94.4194C139.088 94.4194 139.948 94.3871 140.743 94.3226C141.539 94.2366 142.27 94.1183 142.937 93.9677V107.419C142.937 108.28 143.088 108.882 143.389 109.226C143.69 109.548 144.227 109.72 145.002 109.742V111C144.55 110.978 143.937 110.957 143.163 110.935C142.389 110.892 141.582 110.871 140.743 110.871C139.797 110.871 138.819 110.892 137.808 110.935C136.819 110.957 136.023 110.978 135.421 111ZM158.077 111V109.742C159.238 109.72 160.034 109.538 160.464 109.194C160.916 108.849 161.142 108.237 161.142 107.355V95.5806H157.948V94.3226H161.142C161.142 92.3656 161.539 90.7527 162.335 89.4839C163.131 88.2151 164.228 87.2796 165.626 86.6774C167.023 86.0753 168.615 85.7742 170.4 85.7742C172.443 85.7742 174.088 86.1398 175.335 86.871C176.604 87.6022 177.238 88.5699 177.238 89.7742C177.238 90.5484 176.959 91.2043 176.4 91.7419C175.862 92.2581 175.12 92.5161 174.174 92.5161C173.486 92.5161 172.937 92.3548 172.529 92.0323C172.12 91.7097 171.916 91.2903 171.916 90.7742C171.916 90.3656 172.023 90.0108 172.238 89.7097C172.475 89.4086 172.701 89.1398 172.916 88.9032C173.131 88.6452 173.238 88.3763 173.238 88.0968C173.238 87.7742 173.013 87.5161 172.561 87.3226C172.131 87.129 171.507 87.0323 170.69 87.0323C168.97 87.0323 167.69 87.4839 166.851 88.3871C166.013 89.2688 165.593 90.6667 165.593 92.5806V94.3226H171.045C172.056 94.3226 172.916 94.3226 173.626 94.3226C174.357 94.3011 175.002 94.2581 175.561 94.1935C176.12 94.129 176.647 94.0538 177.142 93.9677V107.419C177.142 108.301 177.367 108.903 177.819 109.226C178.271 109.548 179.066 109.72 180.206 109.742V111C179.884 110.978 179.432 110.968 178.851 110.968C178.292 110.946 177.679 110.925 177.013 110.903C176.346 110.882 175.679 110.871 175.013 110.871C174.066 110.871 173.109 110.892 172.142 110.935C171.195 110.957 170.486 110.978 170.013 111V109.742C171.023 109.72 171.722 109.548 172.109 109.226C172.496 108.882 172.69 108.28 172.69 107.419V98.4194C172.69 97.4086 172.496 96.6882 172.109 96.2581C171.744 95.8065 171.099 95.5806 170.174 95.5806H165.593V107.161C165.593 108.086 165.819 108.742 166.271 109.129C166.722 109.516 167.475 109.72 168.529 109.742V111C168.185 110.978 167.722 110.968 167.142 110.968C166.582 110.946 165.97 110.925 165.303 110.903C164.658 110.882 164.013 110.871 163.367 110.871C162.271 110.871 161.238 110.892 160.271 110.935C159.324 110.957 158.593 110.978 158.077 111ZM188.873 118.71C186.593 118.71 184.819 118.333 183.55 117.581C182.282 116.849 181.647 115.892 181.647 114.71C181.647 113.72 182.034 112.86 182.808 112.129C183.583 111.398 184.712 110.785 186.196 110.29L187.034 110.742C186.497 111.065 186.067 111.516 185.744 112.097C185.443 112.677 185.292 113.312 185.292 114C185.292 115.118 185.669 115.978 186.421 116.581C187.174 117.183 188.239 117.484 189.615 117.484C190.712 117.484 191.669 117.301 192.486 116.935C193.303 116.591 193.948 116.108 194.421 115.484C194.894 114.882 195.131 114.183 195.131 113.387C195.131 112.634 194.884 112.065 194.389 111.677C193.916 111.312 193.196 111.129 192.228 111.129H188.808C187.411 111.129 186.303 110.86 185.486 110.323C184.669 109.763 184.26 109.032 184.26 108.129C184.26 107.376 184.518 106.688 185.034 106.065C185.55 105.419 186.346 104.806 187.421 104.226L188.518 104.355C188.11 104.634 187.819 104.914 187.647 105.194C187.475 105.452 187.389 105.731 187.389 106.032C187.389 106.462 187.572 106.796 187.937 107.032C188.325 107.247 188.862 107.355 189.55 107.355H193.099C194.97 107.355 196.4 107.731 197.389 108.484C198.378 109.237 198.873 110.344 198.873 111.806C198.873 113.161 198.454 114.355 197.615 115.387C196.776 116.441 195.604 117.258 194.099 117.839C192.615 118.419 190.873 118.71 188.873 118.71ZM189.518 104.548C187.432 104.548 185.787 104.075 184.583 103.129C183.4 102.183 182.808 100.871 182.808 99.1935C182.808 97.5376 183.4 96.2366 184.583 95.2903C185.787 94.3441 187.432 93.871 189.518 93.871C191.604 93.871 193.228 94.3441 194.389 95.2903C195.55 96.2151 196.131 97.5161 196.131 99.1935C196.131 100.871 195.55 102.183 194.389 103.129C193.228 104.075 191.604 104.548 189.518 104.548ZM189.55 103.323C190.389 103.323 191.024 102.989 191.454 102.323C191.884 101.634 192.099 100.591 192.099 99.1935C192.099 97.7957 191.884 96.7634 191.454 96.0968C191.045 95.4086 190.411 95.0645 189.55 95.0645C188.712 95.0645 188.077 95.4086 187.647 96.0968C187.217 96.7634 187.002 97.7957 187.002 99.1935C187.002 100.591 187.217 101.634 187.647 102.323C188.077 102.989 188.712 103.323 189.55 103.323ZM199.002 98.2903C198.572 98.2903 198.249 98.1505 198.034 97.871C197.841 97.5914 197.679 97.2688 197.55 96.9032C197.443 96.5376 197.325 96.2258 197.196 95.9677C197.067 95.6882 196.873 95.5484 196.615 95.5484C196.486 95.5484 196.303 95.6237 196.067 95.7742C195.83 95.9032 195.583 96.0968 195.325 96.3548C195.088 96.5914 194.862 96.9032 194.647 97.2903L194.099 96.3226C194.55 95.5914 195.153 95 195.905 94.5484C196.658 94.0968 197.432 93.871 198.228 93.871C198.937 93.871 199.507 94.0753 199.937 94.4839C200.368 94.8925 200.583 95.4624 200.583 96.1935C200.583 96.8172 200.432 97.3226 200.131 97.7097C199.851 98.0968 199.475 98.2903 199.002 98.2903ZM209.953 111.452C208.275 111.452 206.985 110.946 206.082 109.935C205.179 108.903 204.727 107.43 204.727 105.516V98.4194C204.727 97.4086 204.491 96.6882 204.017 96.2581C203.566 95.828 202.781 95.6022 201.663 95.5806V94.3226C202.114 94.3441 202.566 94.3656 203.017 94.3871C203.469 94.4086 203.942 94.4194 204.437 94.4194C205.34 94.4194 206.179 94.3871 206.953 94.3226C207.727 94.2366 208.469 94.1183 209.179 93.9677V105.968C209.179 107.086 209.404 107.935 209.856 108.516C210.308 109.097 210.974 109.387 211.856 109.387C212.544 109.387 213.179 109.194 213.759 108.806C214.34 108.398 214.845 107.806 215.275 107.032L215.243 108.452C214.727 109.398 214.007 110.14 213.082 110.677C212.179 111.194 211.136 111.452 209.953 111.452ZM215.114 111.355V98.3871C215.114 97.3763 214.921 96.6667 214.534 96.2581C214.146 95.828 213.48 95.6022 212.534 95.5806V94.3226C212.942 94.3441 213.351 94.3656 213.759 94.3871C214.168 94.4086 214.587 94.4194 215.017 94.4194C215.899 94.4194 216.716 94.3871 217.469 94.3226C218.222 94.2366 218.921 94.1183 219.566 93.9677V106.903C219.566 107.914 219.792 108.634 220.243 109.065C220.716 109.495 221.512 109.72 222.63 109.742V111C222.179 110.957 221.727 110.935 221.275 110.935C220.824 110.914 220.361 110.903 219.888 110.903C218.985 110.903 218.136 110.935 217.34 111C216.544 111.086 215.802 111.204 215.114 111.355ZM224.327 111V109.742C225.488 109.72 226.284 109.548 226.714 109.226C227.166 108.882 227.392 108.28 227.392 107.419V98.4194C227.392 97.4086 227.155 96.6989 226.682 96.2903C226.23 95.8602 225.445 95.6237 224.327 95.5806V94.3226C224.929 94.3441 225.435 94.3656 225.843 94.3871C226.273 94.4086 226.736 94.4194 227.23 94.4194C228.994 94.4194 230.531 94.2688 231.843 93.9677V107.161C231.843 108.108 232.134 108.774 232.714 109.161C233.316 109.527 234.359 109.72 235.843 109.742V111C235.435 110.978 234.886 110.968 234.198 110.968C233.531 110.946 232.8 110.925 232.005 110.903C231.23 110.882 230.467 110.871 229.714 110.871C228.617 110.871 227.564 110.892 226.553 110.935C225.564 110.957 224.822 110.978 224.327 111ZM237.263 100.323C236.725 100.323 236.295 100.172 235.972 99.871C235.65 99.5699 235.488 99.1828 235.488 98.7097C235.488 98.3871 235.542 98.1075 235.65 97.871C235.757 97.6129 235.865 97.3763 235.972 97.1613C236.08 96.9247 236.134 96.6989 236.134 96.4839C236.134 96.0108 235.832 95.7742 235.23 95.7742C234.779 95.7742 234.316 95.8817 233.843 96.0968C233.392 96.3118 232.972 96.6129 232.585 97C232.22 97.3656 231.94 97.7957 231.746 98.2903L231.682 96.9355C232.198 95.9677 232.897 95.2151 233.779 94.6774C234.66 94.1398 235.585 93.871 236.553 93.871C237.564 93.871 238.359 94.172 238.94 94.7742C239.542 95.3548 239.843 96.1613 239.843 97.1935C239.843 98.1398 239.607 98.9032 239.134 99.4839C238.66 100.043 238.037 100.323 237.263 100.323ZM246.647 111.452C245.228 111.452 244.099 111.086 243.26 110.355C242.421 109.602 242.002 108.591 242.002 107.323C242.002 106.333 242.228 105.538 242.679 104.935C243.152 104.312 243.754 103.806 244.486 103.419C245.217 103.032 245.991 102.72 246.808 102.484C247.647 102.226 248.432 101.989 249.163 101.774C249.894 101.538 250.486 101.269 250.937 100.968C251.41 100.645 251.647 100.226 251.647 99.7097V98.1613C251.647 97.1935 251.389 96.4516 250.873 95.9355C250.357 95.4194 249.593 95.1613 248.582 95.1613C247.851 95.1613 247.249 95.2688 246.776 95.4839C246.303 95.6989 246.066 95.9785 246.066 96.3226C246.066 96.5806 246.152 96.8387 246.324 97.0968C246.496 97.3548 246.658 97.6344 246.808 97.9355C246.98 98.2151 247.066 98.5269 247.066 98.871C247.066 99.3441 246.873 99.7312 246.486 100.032C246.12 100.312 245.625 100.452 245.002 100.452C244.292 100.452 243.722 100.247 243.292 99.8387C242.883 99.4086 242.679 98.8495 242.679 98.1613C242.679 97.3011 242.98 96.5591 243.582 95.9355C244.206 95.2903 245.066 94.7849 246.163 94.4194C247.26 94.0538 248.518 93.871 249.937 93.871C251.4 93.871 252.582 94.0753 253.486 94.4839C254.389 94.871 255.045 95.5161 255.453 96.4194C255.883 97.3011 256.099 98.4839 256.099 99.9677V108.29C256.099 108.785 256.174 109.14 256.324 109.355C256.475 109.57 256.722 109.677 257.066 109.677C257.346 109.677 257.636 109.613 257.937 109.484C258.238 109.355 258.539 109.183 258.84 108.968L259.357 110C258.797 110.473 258.163 110.828 257.453 111.065C256.744 111.323 255.948 111.452 255.066 111.452C252.83 111.452 251.701 110.57 251.679 108.806C251.056 109.688 250.324 110.355 249.486 110.806C248.647 111.237 247.701 111.452 246.647 111.452ZM248.711 109.065C249.292 109.065 249.83 108.935 250.324 108.677C250.819 108.398 251.26 108 251.647 107.484V101.484C251.453 101.806 251.152 102.097 250.744 102.355C250.357 102.591 249.916 102.828 249.421 103.065C248.926 103.301 248.453 103.57 248.002 103.871C247.55 104.172 247.174 104.548 246.873 105C246.572 105.43 246.421 105.978 246.421 106.645C246.421 107.398 246.625 107.989 247.034 108.419C247.443 108.849 248.002 109.065 248.711 109.065ZM268.071 111.452C266.394 111.452 265.136 110.989 264.297 110.065C263.458 109.118 263.039 107.72 263.039 105.871V95.5806H259.523V94.3226H263.039V89.6452C263.878 89.6452 264.662 89.5914 265.394 89.4839C266.125 89.3763 266.824 89.2258 267.49 89.0323V94.3226H272.329V95.5806H267.49V106.935C267.49 107.753 267.652 108.366 267.974 108.774C268.318 109.161 268.824 109.355 269.49 109.355C270.114 109.355 270.641 109.161 271.071 108.774C271.501 108.366 271.856 107.774 272.136 107L273.136 107.419C272.684 108.817 272.06 109.839 271.265 110.484C270.469 111.129 269.404 111.452 268.071 111.452ZM282.909 111.452C281.296 111.452 279.866 111.14 278.619 110.516C277.372 109.871 276.393 108.903 275.683 107.613C274.974 106.301 274.619 104.656 274.619 102.677C274.619 100.699 274.974 99.0538 275.683 97.7419C276.393 96.4301 277.372 95.4624 278.619 94.8387C279.866 94.1935 281.296 93.871 282.909 93.871C284.544 93.871 285.974 94.1935 287.2 94.8387C288.425 95.4624 289.393 96.4301 290.103 97.7419C290.812 99.0538 291.167 100.699 291.167 102.677C291.167 104.656 290.812 106.301 290.103 107.613C289.393 108.903 288.425 109.871 287.2 110.516C285.974 111.14 284.544 111.452 282.909 111.452ZM282.909 110.194C283.942 110.194 284.791 109.602 285.458 108.419C286.146 107.215 286.49 105.301 286.49 102.677C286.49 100.011 286.146 98.086 285.458 96.9032C284.791 95.6989 283.942 95.0968 282.909 95.0968C281.856 95.0968 280.995 95.6989 280.329 96.9032C279.662 98.086 279.329 100.011 279.329 102.677C279.329 105.301 279.662 107.215 280.329 108.419C280.995 109.602 281.856 110.194 282.909 110.194ZM293.858 111V109.742C295.02 109.72 295.815 109.548 296.245 109.226C296.697 108.882 296.923 108.28 296.923 107.419V98.4194C296.923 97.4086 296.686 96.6989 296.213 96.2903C295.762 95.8602 294.977 95.6237 293.858 95.5806V94.3226C294.461 94.3441 294.966 94.3656 295.374 94.3871C295.805 94.4086 296.267 94.4194 296.762 94.4194C298.525 94.4194 300.063 94.2688 301.374 93.9677V107.161C301.374 108.108 301.665 108.774 302.245 109.161C302.848 109.527 303.891 109.72 305.374 109.742V111C304.966 110.978 304.418 110.968 303.729 110.968C303.063 110.946 302.331 110.925 301.536 110.903C300.762 110.882 299.998 110.871 299.245 110.871C298.149 110.871 297.095 110.892 296.084 110.935C295.095 110.957 294.353 110.978 293.858 111ZM306.794 100.323C306.256 100.323 305.826 100.172 305.504 99.871C305.181 99.5699 305.02 99.1828 305.02 98.7097C305.02 98.3871 305.073 98.1075 305.181 97.871C305.288 97.6129 305.396 97.3763 305.504 97.1613C305.611 96.9247 305.665 96.6989 305.665 96.4839C305.665 96.0108 305.364 95.7742 304.762 95.7742C304.31 95.7742 303.848 95.8817 303.374 96.0968C302.923 96.3118 302.504 96.6129 302.116 97C301.751 97.3656 301.471 97.7957 301.278 98.2903L301.213 96.9355C301.729 95.9677 302.428 95.2151 303.31 94.6774C304.192 94.1398 305.116 93.871 306.084 93.871C307.095 93.871 307.891 94.172 308.471 94.7742C309.073 95.3548 309.374 96.1613 309.374 97.1935C309.374 98.1398 309.138 98.9032 308.665 99.4839C308.192 100.043 307.568 100.323 306.794 100.323Z" fill="white"/>
</svg>
